<svg width="800" height="800" viewBox="0 0 800 800" fill="none" xmlns="http://www.w3.org/2000/svg">
<path d="M36 110V690M36 565.714H763M763 690V449.714C763 403.31 763 380.106 754.195 362.383C746.453 346.793 734.094 334.116 718.895 326.174C701.617 317.143 678.995 317.143 633.756 317.143H359.111V554.417M197.556 400H197.959M237.944 400C237.944 422.881 219.862 441.429 197.556 441.429C175.25 441.429 157.167 422.881 157.167 400C157.167 377.119 175.25 358.571 197.556 358.571C219.862 358.571 237.944 377.119 237.944 400Z" stroke="#2563EB" stroke-width="66.6667" stroke-linecap="round" stroke-linejoin="round"/>
</svg>
